<?xml version="1.0" encoding="UTF-8"?>
<svg id="Capa_1" data-name="Capa 1" xmlns="http://www.w3.org/2000/svg" viewBox="0 0 150 321">
  <defs>
    <style>
      .cls-1 {
        fill: #041e49;
      }

      .cls-1, .cls-2 {
        stroke-width: 0px;
      }

      .cls-2 {
        fill: #fff;
      }
    </style>
  </defs>
  <g>
    <path class="cls-2" d="m148.64,320.4H1.36v-147.13h147.28v147.13Z"/>
    <path class="cls-1" d="m1.95,319.82h146.11v-145.96H1.95v145.96Zm146.7,1.17H1.36c-.32,0-.59-.26-.59-.59v-147.13c0-.32.26-.58.59-.58h147.28c.32,0,.59.26.59.58v147.13c0,.32-.26.59-.59.59Z"/>
    <path class="cls-1" d="m82.98,301.58c-16.43,0-30.74-11.09-34.81-26.96-.08-.31.11-.63.42-.71.31-.08.63.11.71.42,3.94,15.36,17.79,26.08,33.68,26.08,19.17,0,34.76-15.58,34.76-34.73,0-14.77-9.38-27.96-23.34-32.81-.31-.11-.47-.44-.36-.74.11-.31.44-.47.75-.36,14.43,5.01,24.13,18.64,24.13,33.92,0,19.79-16.12,35.89-35.93,35.89Z"/>
    <path class="cls-2" d="m75.79,213.93c4.97,0,8.99-4.02,8.99-8.99s-4.03-8.98-8.99-8.98-9,4.02-9,8.98,4.03,8.99,9,8.99Z"/>
    <path class="cls-1" d="m75.79,196.55c-4.64,0-8.41,3.77-8.41,8.4s3.77,8.4,8.41,8.4,8.41-3.77,8.41-8.4-3.77-8.4-8.41-8.4Zm0,17.97c-5.28,0-9.58-4.29-9.58-9.57s4.3-9.57,9.58-9.57,9.58,4.29,9.58,9.57-4.3,9.57-9.58,9.57Z"/>
    <path class="cls-2" d="m82.98,213.93c-4.67,0-8.46,3.79-8.46,8.45v15.22h-26.89c-2.91,0-5.28,2.36-5.28,5.27s2.36,5.27,5.28,5.27h26.89v3.96h-25.9c-1.95,0-3.75,1.08-4.66,2.8l-16.54,31.21c-1.36,2.57-.38,5.76,2.19,7.12.79.42,1.63.61,2.46.61,1.89,0,3.72-1.02,4.67-2.8l15.05-28.4h31.19c.43,0,.84-.06,1.24-.15,4.09-.6,7.22-4.11,7.22-8.35v-31.77c0-4.67-3.79-8.45-8.46-8.45Z"/>
    <path class="cls-1" d="m48.62,252.7c-1.74,0-3.33.96-4.15,2.49l-16.54,31.2c-.59,1.11-.71,2.38-.34,3.57.37,1.19,1.18,2.18,2.29,2.76.69.36,1.42.54,2.19.54,1.74,0,3.33-.95,4.15-2.49l15.05-28.4c.1-.19.3-.31.52-.31h31.19c.36,0,.73-.05,1.1-.14,3.88-.57,6.78-3.92,6.78-7.78v-31.77c0-4.34-3.53-7.87-7.88-7.87s-7.88,3.53-7.88,7.87v15.22c0,.32-.26.59-.59.59h-26.89c-2.59,0-4.69,2.1-4.69,4.68s2.1,4.69,4.69,4.69h26.89c.32,0,.59.26.59.58v3.96c0,.32-.26.58-.59.58h-25.9Zm-16.54,41.75c-.95,0-1.9-.23-2.74-.68-1.38-.73-2.4-1.96-2.86-3.45-.46-1.49-.31-3.08.42-4.46l16.54-31.21c1.02-1.92,3-3.12,5.18-3.12h25.32v-2.79h-26.3c-3.23,0-5.86-2.63-5.86-5.86s2.63-5.85,5.86-5.85h26.3v-14.64c0-4.99,4.06-9.04,9.05-9.04s9.05,4.05,9.05,9.04v31.77c0,4.45-3.32,8.28-7.72,8.93-.41.1-.87.16-1.32.16h-30.83l-14.89,28.09c-1.02,1.92-3.01,3.12-5.19,3.12Z"/>
  </g>
  <g>
    <path class="cls-2" d="m148.64,147.73H1.36V.6h147.28v147.13Z"/>
    <path class="cls-1" d="m1.95,147.15h146.11V1.19H1.95v145.96Zm146.69,1.17H1.36c-.32,0-.59-.26-.59-.59V.6C.77.28,1.04.02,1.36.02h147.28c.32,0,.59.26.59.58v147.13c0,.32-.26.59-.59.59Z"/>
    <path class="cls-1" d="m61.21,134.86c-2.3,0-4.52-.59-6.38-1.74-2.79-1.71-4.83-4.7-5.59-8.19-.76-3.49-.16-7.06,1.66-9.78.18-.27.54-.34.81-.16.27.18.34.54.16.81-1.64,2.46-2.19,5.69-1.49,8.87.7,3.18,2.54,5.9,5.06,7.44,2.52,1.55,5.78,1.97,8.93,1.16,3.16-.81,5.8-2.76,7.26-5.33,1.03-1.82,1.57-3.93,2.09-5.97.57-2.24,1.16-4.55,2.39-6.58,1.42-2.33,3.55-4.08,5.62-5.77l.05-.04c8.43-6.89,17.2-14.4,23.69-23.82,7.05-10.23,10.17-21.4,8.8-31.46-1.14-8.35-5.53-16.72-12.35-23.57-7.19-7.21-16-11.71-24.82-12.68-9.84-1.08-19.63,2.48-25.53,9.28-6.37,7.33-7.64,18.3-3.02,26.09.16.28.07.64-.21.8-.28.16-.64.07-.8-.2-4.87-8.21-3.55-19.75,3.15-27.45,6.16-7.08,16.33-10.79,26.54-9.67,9.09.99,18.15,5.61,25.52,13.02,7.01,7.04,11.51,15.64,12.68,24.24,1.41,10.35-1.78,21.81-8.99,32.28-6.57,9.54-15.42,17.12-23.91,24.06l-.05.04c-1.99,1.62-4.04,3.3-5.36,5.47-1.14,1.88-1.69,4.01-2.26,6.26-.54,2.12-1.1,4.31-2.2,6.26-1.61,2.85-4.52,5-7.99,5.89-1.15.3-2.32.44-3.46.44Z"/>
    <path class="cls-1" d="m58.96,101.51c-.27,0-.51-.18-.57-.46-1.06-4.68-1.87-9.56.74-13.37,1.46-2.14,3.72-3.43,5.91-4.67,1.3-.74,2.65-1.51,3.79-2.44,2.2-1.8,3.66-4.72,3.82-7.62.12-2.28-.59-4.33-2-5.76-.98-1-2.22-1.68-3.52-2.4-1.37-.76-2.79-1.54-3.9-2.72-3.26-3.45-2.81-8.67-2.13-13.3.05-.32.34-.55.66-.49.32.05.54.34.49.66-.64,4.35-1.08,9.25,1.82,12.32.99,1.05,2.27,1.75,3.62,2.5,1.32.73,2.69,1.49,3.79,2.61,1.65,1.67,2.47,4.03,2.33,6.64-.17,3.22-1.8,6.47-4.25,8.47-1.22,1-2.61,1.79-3.95,2.55-2.16,1.23-4.21,2.4-5.52,4.32-2.34,3.43-1.56,8.03-.56,12.45.07.32-.13.63-.44.7-.04.01-.09.01-.13.01Z"/>
    <path class="cls-1" d="m73.96,103.97c-.19,0-.39-.1-.5-.27-.17-.27-.09-.63.18-.81,11.36-7.15,19.51-15.55,24.2-24.98,5.55-11.14,5.85-24.04.78-33.66-5.62-10.65-18.37-16.76-29.03-13.91-.31.09-.63-.1-.72-.41-.08-.31.1-.63.41-.72,11.17-2.99,24.5,3.38,30.37,14.5,5.25,9.95,4.96,23.26-.76,34.73-4.79,9.62-13.08,18.17-24.63,25.44-.1.06-.2.09-.31.09Z"/>
  </g>
</svg>