<?xml version="1.0" standalone="no"?>
<!DOCTYPE svg PUBLIC "-//W3C//DTD SVG 20010904//EN"
 "http://www.w3.org/TR/2001/REC-SVG-20010904/DTD/svg10.dtd">
<svg version="1.0" xmlns="http://www.w3.org/2000/svg"
 width="500.000000pt" height="500.000000pt" viewBox="0 0 500.000000 500.000000"
 preserveAspectRatio="xMidYMid meet">
<metadata>
Created by potrace 1.14, written by Peter Selinger 2001-2017
</metadata>
<g transform="translate(0.000000,500.000000) scale(0.100000,-0.100000)"
fill="#000000" stroke="none">
<path d="M2408 4635 c-2 -1 -44 -5 -93 -9 -248 -17 -493 -86 -740 -206 -238
-116 -389 -224 -585 -420 -124 -124 -205 -227 -317 -405 -29 -46 -131 -253
-143 -290 -7 -22 -16 -45 -21 -50 -4 -6 -23 -63 -43 -126 -141 -468 -120 -946
64 -1414 6 -16 11 -31 11 -32 -1 -4 117 -235 136 -268 10 -16 21 -31 26 -33 4
-2 7 -8 7 -13 0 -11 42 -72 53 -77 4 -2 7 -10 7 -18 0 -8 4 -14 8 -14 4 0 15
-12 24 -28 17 -28 67 -90 106 -129 13 -13 21 -23 18 -23 -3 0 20 -25 51 -55
31 -30 61 -55 66 -55 5 0 3 -8 -4 -17 -10 -12 -10 -15 -1 -9 14 8 79 -41 74
-56 -1 -5 1 -7 6 -4 11 7 73 -50 64 -59 -4 -5 -1 -5 6 -1 14 8 45 -18 34 -29
-4 -4 -2 -6 3 -5 6 1 15 2 20 1 14 -1 66 -47 60 -52 -2 -3 4 -5 15 -6 19 -2
78 -39 92 -58 4 -5 4 -13 1 -19 -3 -5 -1 -6 6 -2 6 4 9 13 5 19 -3 7 0 5 8 -4
7 -9 18 -18 23 -20 6 -2 9 -8 7 -12 -1 -5 2 -6 7 -3 5 3 17 3 26 0 13 -6 14
-9 3 -16 -10 -7 -8 -8 5 -4 20 6 89 -23 81 -36 -3 -4 3 -5 12 -1 10 4 21 0 28
-9 12 -16 16 -18 46 -18 14 0 20 -7 21 -22 0 -21 1 -22 8 -3 8 19 8 19 19 0 6
-11 12 -14 12 -7 0 7 5 10 10 7 8 -5 7 -12 -2 -23 -11 -15 -11 -15 4 -4 10 8
26 10 43 6 20 -5 23 -9 13 -15 -7 -5 -8 -9 -2 -9 5 0 16 6 23 13 12 10 13 9 7
-7 -5 -16 -4 -17 9 -6 12 10 15 10 15 -3 0 -9 5 -19 12 -23 8 -5 9 -2 5 9 -5
14 -2 15 18 7 14 -5 25 -7 25 -4 0 4 7 1 15 -6 8 -7 12 -17 8 -24 -3 -6 -3 -8
2 -4 4 4 14 3 21 -3 10 -9 15 -7 20 5 3 9 10 13 16 10 5 -4 5 -11 -1 -18 -8
-9 -7 -13 4 -13 8 0 12 4 10 8 -6 9 32 19 40 11 3 -4 16 -7 28 -8 42 -4 71
-14 79 -26 6 -10 8 -10 8 0 0 10 4 10 16 -2 20 -21 25 -20 17 2 -6 14 -4 15 8
5 8 -6 32 -10 54 -7 26 2 35 0 26 -5 -8 -5 -23 -8 -33 -6 -10 2 -16 0 -13 -5
3 -5 15 -7 28 -4 28 7 156 13 140 7 -7 -3 -13 -9 -13 -14 0 -4 7 -5 17 -2 10
4 14 2 10 -4 -3 -5 0 -10 8 -10 8 0 12 4 9 9 -3 4 0 8 5 8 6 0 11 -6 11 -12 0
-9 3 -9 9 1 5 8 18 15 28 16 10 0 24 4 30 8 6 4 14 3 18 -3 4 -6 12 -7 18 -3
18 11 38 12 31 2 -3 -5 -10 -7 -15 -4 -15 10 -10 -2 8 -16 11 -10 14 -10 9 -1
-5 8 1 12 23 12 16 0 31 -5 33 -12 3 -7 7 -5 11 6 4 9 3 15 -2 11 -5 -3 -12
-1 -16 4 -3 6 4 8 17 6 12 -3 26 1 30 8 6 9 8 9 8 0 0 -6 -5 -15 -10 -18 -6
-3 -10 -11 -10 -17 0 -6 8 -2 18 10 12 13 23 18 31 13 11 -7 11 -10 0 -14 -9
-3 -10 -6 -2 -6 6 -1 14 3 18 9 3 5 12 7 19 4 8 -3 17 -1 20 4 3 5 -6 8 -19 6
-14 -1 -27 1 -29 5 -2 3 12 7 32 8 21 0 50 4 67 8 16 3 27 4 24 0 -4 -3 -17
-8 -29 -10 -12 -2 -25 -7 -29 -11 -3 -4 2 -4 11 -1 10 3 20 2 23 -3 4 -6 12
-10 18 -10 7 0 6 4 -3 10 -12 8 -12 10 -1 10 8 0 20 8 27 18 13 16 14 16 8 0
-3 -10 -1 -18 5 -18 6 0 11 7 11 16 0 8 5 12 10 9 6 -3 16 -3 23 2 12 8 29 13
59 17 10 1 20 5 24 8 3 4 17 4 31 2 14 -3 22 -1 19 5 -7 10 26 7 44 -4 6 -3
10 1 10 9 0 9 5 16 11 16 5 0 8 -4 5 -8 -2 -4 0 -14 6 -22 8 -12 9 -11 4 4 -5
14 -3 17 11 12 15 -6 16 -5 6 5 -7 7 -13 17 -13 23 0 5 11 -4 25 -20 14 -16
23 -21 19 -11 -5 13 -2 16 9 11 8 -3 18 0 22 5 3 6 10 9 14 6 5 -2 16 4 26 15
14 16 21 17 32 8 10 -8 17 -8 26 1 9 10 8 11 -8 5 -18 -7 -19 -6 -5 12 14 18
14 18 -2 5 -10 -8 -18 -9 -18 -3 0 18 24 20 44 3 18 -15 18 -15 6 9 -7 14 -9
22 -5 18 5 -4 14 -3 21 3 8 7 14 6 20 -2 5 -8 3 -9 -6 -4 -9 6 -11 4 -5 -5 6
-9 4 -11 -5 -5 -9 6 -11 4 -6 -4 6 -9 12 -9 25 3 10 9 21 13 26 9 4 -5 5 -2 1
5 -4 7 -12 10 -17 7 -5 -4 -9 -2 -9 3 0 6 7 13 16 16 8 3 13 2 10 -3 -3 -5 1
-12 10 -15 12 -5 14 -1 9 15 -7 20 -7 20 21 2 16 -10 25 -13 21 -6 -9 14 22
33 42 25 12 -4 12 -3 0 11 -13 14 -16 13 -35 -5 -13 -11 -24 -15 -28 -9 -4 5
-2 12 4 16 5 3 10 3 10 -1 0 -4 9 1 20 11 11 10 20 14 20 10 0 -4 9 0 20 10
11 10 20 14 20 10 0 -5 7 0 15 11 14 18 14 17 5 -11 l-10 -30 19 25 c11 13 17
29 14 35 -4 5 -3 7 2 3 4 -4 22 4 40 18 21 16 36 21 40 15 6 -11 -1 -15 -20
-11 -5 1 -6 -2 -2 -6 12 -12 38 -14 30 -1 -4 6 0 8 10 4 16 -6 16 -5 1 18 -15
23 -15 25 0 19 9 -3 16 -1 16 5 0 6 5 11 11 11 5 0 8 -4 5 -9 -3 -5 3 -11 15
-14 20 -5 20 -5 4 20 -10 14 -12 22 -6 19 6 -4 11 -2 11 4 0 7 7 5 16 -5 21
-20 44 -3 37 28 -3 12 -1 18 4 12 4 -5 17 -17 28 -25 18 -14 19 -13 8 1 -15
19 -8 30 15 22 15 -4 15 -3 2 6 -8 6 -11 11 -6 11 5 0 2 8 -5 17 -8 10 -9 14
-2 10 7 -4 16 0 22 10 8 15 12 16 23 4 11 -12 11 -13 -1 -6 -10 6 -12 4 -6 -5
5 -8 4 -11 -3 -6 -6 3 -13 2 -17 -4 -9 -15 13 -12 40 6 14 9 22 21 18 27 -4 6
0 8 10 4 11 -4 14 -2 10 9 -4 11 -9 12 -19 3 -8 -6 -11 -15 -8 -20 3 -5 1 -9
-4 -9 -6 0 -13 7 -16 16 -3 8 -2 13 2 11 9 -6 33 19 25 26 -3 3 5 3 16 0 16
-4 20 -2 15 10 -3 8 0 18 7 23 9 5 10 2 6 -9 -3 -9 -2 -19 3 -22 6 -4 11 1 11
9 1 16 4 28 9 44 1 4 2 10 1 15 -2 14 17 7 23 -9 4 -10 2 -13 -7 -8 -6 4 -9 4
-5 -1 4 -4 3 -14 -3 -22 -15 -17 -1 -17 16 1 8 8 12 25 9 41 -4 22 -3 24 10
13 7 -7 11 -17 8 -22 -3 -5 0 -6 7 -2 9 6 9 11 -1 24 -11 14 -10 15 5 9 13 -5
17 -3 14 5 -2 7 -11 12 -18 10 -9 -2 -7 4 5 17 21 23 35 29 17 7 -9 -11 -7
-15 8 -19 15 -4 18 -1 13 12 -5 14 -4 14 11 2 15 -12 17 -12 11 4 -5 13 -4 16
5 11 7 -5 10 -2 9 6 -2 7 3 12 11 10 12 -3 12 0 1 12 -15 19 -24 21 -14 4 4
-7 3 -8 -5 -4 -7 4 -10 2 -9 -5 2 -6 -3 -14 -9 -16 -18 -6 -16 12 2 27 8 7 12
17 9 22 -4 6 5 3 18 -6 21 -14 25 -14 25 -1 0 8 -4 12 -9 9 -4 -3 -5 2 -2 10
3 9 10 16 16 16 5 0 7 -4 4 -8 -2 -4 -1 -14 3 -21 6 -9 11 -10 15 -2 4 6 1 11
-6 11 -7 0 -3 7 9 15 22 16 21 51 -1 38 -7 -4 -7 -1 1 9 7 8 9 19 5 23 -4 5
-1 5 6 1 6 -4 12 -2 12 3 0 6 5 11 11 11 8 0 9 -4 0 -13 -6 -8 -7 -18 -3 -22
4 -5 1 -5 -7 0 -9 5 -12 4 -7 -3 11 -18 27 -14 24 5 -2 11 2 17 10 15 10 -2
10 2 1 19 -9 17 -8 23 2 30 8 5 14 13 14 18 0 21 46 70 60 65 8 -4 12 -11 8
-17 -4 -6 -1 -7 6 -2 9 5 6 14 -11 34 -12 14 -16 20 -8 14 17 -16 40 -17 40
-2 0 5 -4 8 -9 4 -5 -3 -12 -1 -15 4 -4 5 -2 12 4 16 6 4 8 10 5 14 -2 5 3 17
11 27 9 10 13 13 9 7 -11 -22 -14 -54 -5 -48 4 3 11 -1 14 -7 3 -7 3 -1 0 15
-6 26 2 33 29 28 5 -1 6 3 2 9 -8 13 13 52 25 45 10 -6 7 21 -4 32 -4 4 -6 4
-4 -2 3 -11 -4 -15 -24 -15 -7 0 -5 5 5 11 9 6 14 15 11 21 -4 7 -2 8 4 4 24
-15 51 -15 45 0 -3 8 -9 14 -15 14 -5 0 -6 -5 -2 -12 4 -6 3 -8 -4 -4 -12 7
-8 42 8 60 5 7 7 16 3 19 -3 4 -4 7 -1 7 3 0 12 -8 19 -17 12 -14 12 -16 0 -8
-10 6 -12 4 -6 -5 5 -9 4 -11 -3 -6 -17 10 -15 -9 2 -23 11 -9 14 -8 12 6 0
11 5 17 13 15 12 -3 12 0 2 12 -16 19 -6 37 17 30 14 -5 14 -4 2 4 -10 8 -18
8 -27 1 -9 -8 -11 -5 -8 11 5 25 15 40 15 23 0 -6 6 -13 13 -16 8 -3 14 1 14
9 0 7 -4 11 -8 9 -14 -9 -17 23 -4 43 8 10 11 22 8 26 -3 3 -1 6 6 6 7 0 9 5
5 12 -4 7 -3 8 5 4 9 -6 8 -14 -4 -32 -8 -13 -11 -24 -6 -24 5 0 13 9 16 20 3
11 11 20 17 20 6 0 1 9 -12 20 -13 11 -19 20 -14 20 6 0 14 -4 20 -10 6 -6 15
-5 24 1 13 10 13 10 -1 6 -8 -3 -21 3 -27 14 -11 17 -9 21 13 29 15 6 23 15
20 20 -4 6 -8 23 -10 38 -2 15 -2 21 1 15 4 -10 11 -10 25 -2 20 10 17 29 -4
29 -7 0 -6 -4 3 -10 9 -6 10 -10 3 -10 -17 0 -23 14 -13 30 6 10 12 11 22 2
11 -9 14 -7 15 11 2 39 9 58 24 68 11 7 11 9 1 9 -7 0 -10 5 -6 12 4 7 3 8 -4
4 -16 -10 -15 7 1 23 10 11 9 13 -5 8 -10 -4 -18 -2 -18 3 0 6 9 10 19 10 10
0 22 7 25 16 3 8 2 12 -4 9 -6 -3 -10 -1 -10 5 0 6 -6 8 -13 4 -7 -4 -9 -3 -4
2 5 5 14 9 20 9 7 0 12 5 12 10 0 6 4 16 9 24 6 10 5 12 -2 7 -18 -11 -14 5 4
19 15 10 15 12 1 12 -19 0 -28 -18 -22 -46 3 -14 -1 -18 -12 -14 -8 3 -11 9
-6 12 5 3 8 18 8 33 -1 15 3 24 7 22 5 -3 7 6 4 20 -4 20 -1 24 12 20 14 -5
13 -2 -2 10 -11 9 -15 16 -9 16 6 0 9 23 8 56 -2 40 1 57 11 61 8 3 14 9 14
15 0 5 -4 7 -9 3 -5 -3 -12 -1 -15 4 -4 5 -2 12 3 15 5 4 8 18 5 31 -3 16 0
25 8 25 10 0 10 2 0 9 -10 6 -8 10 10 15 l23 6 -24 14 c-18 10 -21 15 -10 20
11 5 11 7 2 12 -7 3 -13 10 -13 15 0 6 5 7 12 3 6 -4 8 -3 4 4 -3 6 -1 14 5
17 7 5 4 13 -8 24 -14 13 -18 31 -17 72 1 30 4 61 8 70 4 10 1 23 -9 33 -11
11 -12 16 -4 16 7 0 4 7 -7 15 -18 14 -17 15 11 10 25 -5 27 -4 8 4 -22 10
-37 42 -36 74 0 9 2 18 3 20 7 9 8 47 1 51 -4 3 -7 -6 -5 -19 1 -14 -2 -23 -7
-20 -5 4 -7 22 -4 41 3 25 1 33 -8 27 -7 -4 -5 2 3 12 8 10 10 16 4 13 -5 -4
-15 6 -21 23 -6 16 -7 27 -2 23 5 -3 9 0 9 5 0 6 -4 11 -9 11 -5 0 -14 14 -20
31 -14 39 -14 49 -1 29 8 -12 9 -11 7 5 -2 11 -9 31 -14 45 -6 14 -8 29 -5 34
3 5 0 6 -6 2 -13 -8 -37 38 -33 62 1 6 -3 12 -9 12 -14 0 -13 37 2 42 9 3 9 6
0 12 -7 4 -12 2 -12 -3 0 -6 -5 -11 -12 -11 -6 0 -8 3 -5 6 3 4 0 16 -8 28
-18 25 -19 39 -2 31 6 -3 2 2 -10 11 -13 9 -23 25 -23 35 0 11 -4 19 -10 19
-5 0 -10 5 -10 11 0 5 6 7 13 4 6 -3 2 2 -10 11 -13 9 -23 28 -24 43 0 14 -3
20 -6 12 -4 -9 -12 0 -23 25 -10 21 -16 43 -13 49 4 5 3 7 -2 3 -8 -8 -43 33
-36 41 1 2 -4 8 -13 13 -9 5 -13 15 -9 26 3 9 3 14 -2 10 -7 -7 -18 1 -45 36
-13 18 -13 19 0 12 8 -5 2 3 -13 17 -18 16 -26 31 -21 38 4 8 3 9 -4 5 -7 -4
-12 -2 -12 4 0 6 -4 9 -9 5 -5 -3 -12 3 -15 13 -3 9 -31 43 -61 75 -30 31 -55
62 -55 69 0 6 -3 9 -6 6 -3 -3 -18 6 -33 20 -65 62 -129 119 -171 152 -25 19
-46 38 -48 42 -2 4 -10 8 -18 8 -8 0 -17 6 -20 14 -3 8 -13 17 -22 20 -27 10
-98 56 -87 56 6 0 -64 37 -155 83 -130 65 -346 150 -415 163 -5 1 -48 11 -95
22 -141 33 -226 43 -414 47 -75 1 -136 1 -138 0z m2127 -1455 c3 -5 1 -10 -4
-10 -6 0 -11 5 -11 10 0 6 2 10 4 10 3 0 8 -4 11 -10z m95 -421 c0 -5 -4 -9
-8 -9 -5 0 -9 7 -9 15 0 8 4 12 9 9 4 -3 8 -9 8 -15z m20 -163 c0 -2 -7 -7
-16 -10 -8 -3 -12 -2 -9 4 6 10 25 14 25 6z m-59 -599 c-6 -8 -8 -17 -4 -20 3
-4 1 -7 -5 -7 -6 0 -14 5 -17 10 -3 6 -1 10 5 10 6 0 8 5 5 10 -3 6 1 10 11
10 13 0 14 -3 5 -13z m-14 -54 c0 -9 -4 -10 -14 -2 -7 6 -13 12 -13 14 0 1 6
2 13 2 8 0 14 -6 14 -14z m-213 -498 c-4 -8 -8 -15 -10 -15 -2 0 -4 7 -4 15 0
8 4 15 10 15 5 0 7 -7 4 -15z m-189 -295 c-3 -5 -11 -10 -16 -10 -6 0 -7 5 -4
10 3 6 11 10 16 10 6 0 7 -4 4 -10z m-355 -329 c0 -6 -5 -13 -12 -17 -6 -4 -8
-3 -4 4 3 5 0 13 -6 15 -8 3 -6 6 5 6 9 1 17 -3 17 -8z m-49 -44 c-1 -12 -15
-9 -19 4 -3 6 1 10 8 8 6 -3 11 -8 11 -12z m-516 -277 c-20 -22 -37 -18 -28 6
5 12 7 13 14 3 6 -10 9 -9 15 4 3 10 9 15 12 12 3 -2 -3 -14 -13 -25z m-45
-14 c0 -9 -9 -14 -20 -13 -22 1 -27 13 -7 20 21 9 27 7 27 -7z m-1240 -47 c0
-6 -4 -7 -10 -4 -5 3 -10 11 -10 16 0 6 5 7 10 4 6 -3 10 -11 10 -16z m500
-55 c0 -8 -19 -13 -24 -6 -3 5 1 9 9 9 8 0 15 -2 15 -3z"/>
<path d="M4495 3291 c-3 -5 -2 -12 3 -15 5 -3 9 1 9 9 0 17 -3 19 -12 6z"/>
<path d="M4615 2860 c3 -5 8 -10 11 -10 2 0 4 5 4 10 0 6 -5 10 -11 10 -5 0
-7 -4 -4 -10z"/>
<path d="M4635 2701 c-3 -5 0 -13 6 -17 7 -4 9 -3 5 4 -3 5 0 13 6 15 9 4 10
6 1 6 -6 1 -14 -3 -18 -8z"/>
<path d="M4635 2640 c-3 -6 1 -7 9 -4 18 7 21 14 7 14 -6 0 -13 -4 -16 -10z"/>
<path d="M4643 2444 c0 -16 13 -19 21 -5 3 5 0 11 -7 14 -8 3 -14 -1 -14 -9z"/>
<path d="M4630 2360 c0 -5 5 -10 10 -10 6 0 10 5 10 10 0 6 -4 10 -10 10 -5 0
-10 -4 -10 -10z"/>
<path d="M4638 2313 c7 -3 16 -2 19 1 4 3 -2 6 -13 5 -11 0 -14 -3 -6 -6z"/>
<path d="M4633 2285 c0 -6 6 -12 12 -12 6 0 12 6 12 12 0 6 -6 12 -12 12 -6 0
-12 -6 -12 -12z"/>
<path d="M4546 1861 c-3 -5 1 -14 8 -20 10 -9 16 -9 21 -1 4 6 3 10 -2 9 -20
-3 -27 2 -13 11 9 6 10 10 3 10 -6 0 -14 -4 -17 -9z"/>
<path d="M4540 1801 c-8 -6 -18 -7 -24 -4 -5 3 -6 1 -2 -5 5 -9 13 -9 27 -2
10 6 19 13 19 15 0 7 -3 6 -20 -4z"/>
<path d="M4356 1398 c3 -5 10 -6 15 -3 13 9 11 12 -6 12 -8 0 -12 -4 -9 -9z"/>
<path d="M4261 1301 c-21 -29 -21 -29 -1 -34 11 -3 18 -1 15 3 -3 5 0 10 7 13
7 2 4 3 -7 1 -17 -3 -18 -1 -5 9 14 11 25 37 16 37 -3 0 -14 -13 -25 -29z"/>
<path d="M4231 1246 c-9 -10 -9 -16 -1 -21 6 -4 14 -4 17 -1 4 3 0 6 -8 6 -12
0 -12 2 1 10 8 5 12 12 9 15 -4 3 -12 -1 -18 -9z"/>
<path d="M3690 720 c0 -5 5 -10 11 -10 5 0 7 5 4 10 -3 6 -8 10 -11 10 -2 0
-4 -4 -4 -10z"/>
<path d="M3590 665 c-13 -14 -20 -28 -17 -32 4 -3 7 -1 7 5 0 6 8 9 18 6 14
-5 15 -4 2 5 -15 10 -13 12 12 15 13 1 24 26 11 26 -5 0 -20 -11 -33 -25z"/>
<path d="M3636 662 c-3 -5 1 -9 9 -9 8 0 12 4 9 9 -3 4 -7 8 -9 8 -2 0 -6 -4
-9 -8z"/>
<path d="M3511 626 c-9 -10 -8 -15 2 -19 8 -3 13 3 14 14 2 23 -1 24 -16 5z"/>
<path d="M3060 435 c-13 -16 -35 -21 -26 -6 4 5 -2 8 -11 6 -10 -2 -18 -4 -18
-5 0 -1 -9 -3 -20 -5 -27 -5 -47 -10 -68 -20 -15 -6 -16 -10 -5 -16 7 -5 18
-9 23 -9 6 0 3 5 -5 10 -8 5 -13 10 -10 11 3 0 15 2 28 5 12 2 22 -1 22 -8 0
-6 11 -1 24 11 21 20 25 21 33 7 8 -15 11 -14 30 3 11 11 24 17 29 13 4 -4 4
-1 0 6 -9 15 -11 15 -26 -3z"/>
<path d="M2030 420 c0 -5 5 -10 11 -10 5 0 7 5 4 10 -3 6 -8 10 -11 10 -2 0
-4 -4 -4 -10z"/>
<path d="M2066 408 c3 -4 9 -8 15 -8 5 0 9 4 9 8 0 5 -7 9 -15 9 -8 0 -12 -4
-9 -9z"/>
<path d="M2126 397 c3 -10 9 -15 12 -12 3 3 0 11 -7 18 -10 9 -11 8 -5 -6z"/>
<path d="M2323 365 c0 -8 4 -12 9 -9 5 3 6 10 3 15 -9 13 -12 11 -12 -6z"/>
<path d="M2362 366 c7 -8 15 -12 17 -11 5 6 -10 25 -20 25 -5 0 -4 -6 3 -14z"/>
<path d="M2517 373 c-4 -3 -7 -10 -7 -15 0 -10 37 -5 47 8 5 5 4 6 -1 2 -5 -4
-14 -3 -21 2 -7 5 -15 7 -18 3z"/>
</g>
</svg>
